<svg xmlns="http://www.w3.org/2000/svg" viewBox="0 0 512 512" style="height: 512px; width: 512px;"><defs><filter id="shadow-2" height="300%" width="300%" x="-100%" y="-100%"><feFlood flood-color="rgba(6, 47, 79, 1)" result="flood"></feFlood><feComposite in="flood" in2="SourceGraphic" operator="atop" result="composite"></feComposite><feGaussianBlur in="composite" stdDeviation="15" result="blur"></feGaussianBlur><feOffset dx="0" dy="0" result="offset"></feOffset><feComposite in="SourceGraphic" in2="offset" operator="over"></feComposite></filter></defs><circle cx="256" cy="256" r="123" fill="#4a4a4a" fill-opacity="1" stroke="#4a4a4a" stroke-opacity="1" stroke-width="133"></circle><g class="" transform="translate(0,0)" style="touch-action: none;"><g><path d="M185.901 21.667C273.666 103.134 325.901 190.875 363.188 289.153C275.49 184.914 242.314 163.723 116.89 109.33C208.453 181.54 226.108 200.347 279.729 286.045C209.686 233.824 113.352 182.993 20.763 155.41L20.763 240.811C116.209 265.351 265.372 337.912 332.605 416.026C331.98 390.451 328.62 364.879 318.089 339.304L426.95 451.276C420.405 417.271 406.439 384.091 384.961 351.747L499.006 468.382C461.763 292.837 343.066 104.34 185.903 21.667Z" class="selected" fill="#b82601" fill-opacity="1" filter="url(#shadow-2)"></path></g></g></svg>